<?xml version="1.0" standalone="no"?><!DOCTYPE svg PUBLIC "-//W3C//DTD SVG 1.1//EN" "http://www.w3.org/Graphics/SVG/1.1/DTD/svg11.dtd"><svg t="1599617163284" class="icon" viewBox="0 0 1024 1024" version="1.1" xmlns="http://www.w3.org/2000/svg" p-id="9830" xmlns:xlink="http://www.w3.org/1999/xlink" width="200" height="200"><defs><style type="text/css"></style></defs><path d="M512 4C231.9 4 4 231.9 4 512s227.9 508 508 508 508-227.9 508-508S792.1 4 512 4z m0 971.8C256.3 975.8 48.2 767.7 48.2 512S256.3 48.2 512 48.2 975.8 256.3 975.8 512 767.7 975.8 512 975.8zM774.2 512c0 12.2-9.9 22.1-22.1 22.1h-218v218c0 12.2-9.9 22.1-22.1 22.1-12.2 0-22.1-9.9-22.1-22.1v-218h-218c-12.2 0-22.1-9.9-22.1-22.1 0-12.2 9.9-22.1 22.1-22.1h218v-218c0-12.2 9.9-22.1 22.1-22.1 12.2 0 22.1 9.9 22.1 22.1v218h218c12.2 0 22.1 9.9 22.1 22.1z" p-id="9831"></path></svg>