<?xml version="1.0" standalone="no"?><!DOCTYPE svg PUBLIC "-//W3C//DTD SVG 1.1//EN" "http://www.w3.org/Graphics/SVG/1.1/DTD/svg11.dtd"><svg t="1599693798583" class="icon" viewBox="0 0 1024 1024" version="1.1" xmlns="http://www.w3.org/2000/svg" p-id="2149" xmlns:xlink="http://www.w3.org/1999/xlink" width="200" height="200"><defs><style type="text/css"></style></defs><path d="M832 256l-64 0 0 19.2c0 19.2-12.8 32-32 32S704 294.4 704 275.2L704 256 544 256l0 19.2c0 19.2-12.8 32-32 32S480 294.4 480 275.2L480 256 320 256l0 19.2c0 19.2-12.8 32-32 32S256 294.4 256 275.2L256 256 192 256C153.6 256 128 281.6 128 320l0 512c0 38.4 25.6 64 64 64l640 0c38.4 0 64-25.6 64-64L896 320C896 281.6 870.4 256 832 256zM864 806.4c0 32-25.6 57.6-57.6 57.6L217.6 864c-32 0-57.6-25.6-57.6-57.6L160 409.6c0-32 25.6-57.6 57.6-57.6l595.2 0c32 0 57.6 25.6 57.6 57.6L870.4 806.4z" p-id="2150"></path><path d="M512 294.4 512 294.4c-6.4 0-12.8-6.4-12.8-12.8L499.2 185.6c0-6.4 6.4-12.8 12.8-12.8l0 0c6.4 0 12.8 6.4 12.8 12.8l0 96C524.8 288 518.4 294.4 512 294.4z" p-id="2151"></path><path d="M288 294.4 288 294.4c-6.4 0-19.2-6.4-19.2-12.8L268.8 185.6c0-6.4 6.4-12.8 12.8-12.8l0 0c6.4 0 12.8 6.4 12.8 12.8l0 96C307.2 288 294.4 294.4 288 294.4z" p-id="2152"></path><path d="M736 294.4 736 294.4c-6.4 0-12.8-6.4-12.8-12.8L723.2 185.6c0-6.4 6.4-12.8 12.8-12.8l0 0c6.4 0 12.8 6.4 12.8 12.8l0 96C755.2 288 742.4 294.4 736 294.4z" p-id="2153"></path><path d="M313.6 544 288 544C288 512 294.4 486.4 320 467.2s44.8-32 76.8-32c32 0 51.2 6.4 70.4 25.6 19.2 19.2 25.6 38.4 25.6 70.4 0 19.2-6.4 38.4-12.8 57.6C467.2 608 448 627.2 428.8 652.8l-83.2 89.6 147.2 0L492.8 768 275.2 768l121.6-134.4C422.4 614.4 435.2 595.2 448 582.4c6.4-12.8 12.8-32 12.8-44.8 0-19.2-6.4-32-19.2-44.8C428.8 473.6 409.6 467.2 390.4 467.2S352 473.6 339.2 486.4 320 524.8 313.6 544z" p-id="2154"></path><path d="M544 448l204.8 0L576 774.4l-25.6-12.8 147.2-288L544 473.6 544 448z" p-id="2155"></path></svg>