<?xml version="1.0" standalone="no"?><!DOCTYPE svg PUBLIC "-//W3C//DTD SVG 1.1//EN" "http://www.w3.org/Graphics/SVG/1.1/DTD/svg11.dtd"><svg t="1599962597261" class="icon" viewBox="0 0 1024 1024" version="1.1" xmlns="http://www.w3.org/2000/svg" p-id="45469" xmlns:xlink="http://www.w3.org/1999/xlink" width="200" height="200"><defs><style type="text/css"></style></defs><path d="M870.4 556.8l-89.6-403.2c-6.4-32-38.4-57.6-70.4-57.6L313.6 96c-38.4 0-64 25.6-70.4 57.6L153.6 556.8C153.6 576 153.6 595.2 166.4 614.4 179.2 633.6 204.8 640 224 640l576 0c25.6 0 44.8-12.8 57.6-25.6C870.4 595.2 870.4 576 870.4 556.8zM812.8 582.4c-6.4 6.4-12.8 6.4-19.2 6.4l-576 0c-6.4 0-12.8 0-19.2-6.4 0 0-6.4-6.4 0-12.8l89.6-403.2c0-6.4 12.8-12.8 19.2-12.8l396.8 0c12.8 0 19.2 6.4 19.2 12.8l89.6 403.2C819.2 576 819.2 576 812.8 582.4z" p-id="45470"></path><path d="M473.6 70.4l76.8 0c6.4 0 6.4-6.4 6.4-6.4L544 6.4c0 0 0-6.4-6.4-6.4L486.4 0c0 0-6.4 0-6.4 6.4L473.6 64C467.2 70.4 473.6 70.4 473.6 70.4z" p-id="45471"></path><path d="M537.6 960l0-281.6L486.4 678.4 486.4 960c-96 0-172.8 12.8-172.8 32C313.6 1011.2 403.2 1024 512 1024c108.8 0 198.4-12.8 198.4-32C710.4 979.2 633.6 960 537.6 960z" p-id="45472"></path></svg>