<?xml version="1.0" standalone="no"?><!DOCTYPE svg PUBLIC "-//W3C//DTD SVG 1.1//EN" "http://www.w3.org/Graphics/SVG/1.1/DTD/svg11.dtd"><svg t="1599962717205" class="icon" viewBox="0 0 1024 1024" version="1.1" xmlns="http://www.w3.org/2000/svg" p-id="46774" xmlns:xlink="http://www.w3.org/1999/xlink" width="200" height="200"><defs><style type="text/css"></style></defs><path d="M1009.00928 83.192a30.424 30.424 0 0 0-41.736 10.776l-138.584 235.08a403.256 403.256 0 0 0-75.072-68.88l104.056-179.52a30.48 30.48 0 0 0-11.072-41.664 30.48 30.48 0 0 0-41.68 11.088L701.32928 228.8a398.04 398.04 0 0 0-178.608-42.176 397.904 397.904 0 0 0-191.432 48.824L220.76928 49.768a30.528 30.528 0 0 0-41.792-10.6 30.512 30.512 0 0 0-10.6 41.792l111.784 187.784a403.592 403.592 0 0 0-70.08 68.536L56.28928 93.2a30.48 30.48 0 0 0-51.584 32.504l168.16 266.888a397.952 397.952 0 0 0-50.592 194.544c0 220.84 179.648 400.488 400.456 400.488 220.856 0 400.552-179.64 400.552-400.488a398.032 398.032 0 0 0-55.872-203.704l152.384-258.496a30.504 30.504 0 0 0-10.784-41.744zM522.72128 926.656c-187.184 0-339.496-152.32-339.496-339.52 0-187.232 152.304-339.544 339.496-339.544 187.248 0 339.592 152.32 339.592 339.544 0 187.2-152.344 339.52-339.592 339.52z" fill="#838384" p-id="46775"></path><path d="M703.80928 517.304L597.60928 501.848 550.08128 405.6c-10.272-20.824-44.4-20.792-54.672 0.016l-47.496 96.232-106.224 15.456a30.456 30.456 0 0 0-16.88 51.968l76.856 74.92-18.136 105.8a30.44 30.44 0 0 0 12.12 29.8 30.4 30.4 0 0 0 32.104 2.32l95-49.92 95.064 49.952a30.424 30.424 0 0 0 32.088-2.344 30.48 30.48 0 0 0 12.12-29.8l-18.184-105.824 76.88-74.896a30.48 30.48 0 0 0-16.912-51.976zM589.81728 611.728a30.416 30.416 0 0 0-8.768 26.968l10.44 60.72-54.552-28.632a30.36 30.36 0 0 0-28.36 0l-54.52 28.632 10.416-60.72a30.392 30.392 0 0 0-8.768-26.968l-44.104-42.984 60.952-8.872a30.488 30.488 0 0 0 22.952-16.664l27.256-55.248 27.296 55.248a30.464 30.464 0 0 0 22.936 16.664l60.928 8.872-44.104 42.984z" fill="#838384" p-id="46776"></path></svg>