<?xml version="1.0" standalone="no"?><!DOCTYPE svg PUBLIC "-//W3C//DTD SVG 1.1//EN" "http://www.w3.org/Graphics/SVG/1.1/DTD/svg11.dtd"><svg t="1599694070719" class="icon" viewBox="0 0 1024 1024" version="1.1" xmlns="http://www.w3.org/2000/svg" p-id="1027" xmlns:xlink="http://www.w3.org/1999/xlink" width="200" height="200"><defs><style type="text/css"></style></defs><path d="M233.2 533.20000001L535 835c11.7 11.7 30.7 11.7 42.4 0s11.7-30.7 0-42.4L296.9 512 577.4 231.5c11.7-11.7 11.7-30.7-1e-8-42.4-5.9-5.9-13.5-8.8-21.19999999-8.8s-15.4 2.90000001-21.2 8.8l-301.7 301.8c-11.8 11.6-11.8 30.6-0.1 42.30000001z m213.4-1e-8L748.3 835c11.7 11.7 30.7 11.7 42.4 0s11.7-30.7 0-42.4L510.19999999 512 790.7 231.5c11.7-11.7 11.7-30.7 0-42.4-5.9-5.9-13.5-8.8-21.19999999-8.8s-15.4 2.90000001-21.20000001 8.8l-301.7 301.8c-11.8 11.6-11.8 30.6 0 42.3z" p-id="1028"></path></svg>