<?xml version="1.0" standalone="no"?><!DOCTYPE svg PUBLIC "-//W3C//DTD SVG 1.1//EN" "http://www.w3.org/Graphics/SVG/1.1/DTD/svg11.dtd"><svg t="1600251539409" class="icon" viewBox="0 0 1024 1024" version="1.1" xmlns="http://www.w3.org/2000/svg" p-id="7592" xmlns:xlink="http://www.w3.org/1999/xlink" width="200" height="200"><defs><style type="text/css"></style></defs><path d="M1024.00117 593.3v-20.9c-10.1-95.3-78-174.5-170.7-199.1-16.3-134.6-162.7-240-341.3-240S187.00117 238.7 170.70117 373C77.90117 397.6 10.00117 477 0.00117 572.5v143.7c-0.2 31.7 25.2 57.6 56.9 58h59.5c12.7 67.1 71 115.8 139.2 116.4 68.2-0.6 126.5-49.4 139.2-116.4h231.3c12.7 67.1 71 115.8 139.2 116.4 70.6 2.1 132.2-47.7 144.9-117.2h58c31.2-1 56-26.8 55.7-58V593.3zM793.40117 365.8H538.50117V192.4C667.80117 201.1 774.00117 273.6 793.00117 366.1l0.4-0.3z m-311.7-173v173.3H230.60117c18.6-91.7 123.2-163.4 251.1-173.3zM341.30117 751.1c-1.5 3.4-2.6 7-3.4 10.6-7.7 39.8-42.1 68.9-82.7 69.8-35.4 0.5-67.5-20.5-81.4-53.1-13.9-32.6-6.7-70.3 18.2-95.4 24.9-25.2 62.5-32.9 95.2-19.4 32.7 13.4 54.1 45.3 54.1 80.7v6.8z m512 0c-1.5 3.4-2.6 7-3.4 10.6-12.8 40.7-55.1 64.4-96.5 53.9-41.4-10.5-67.3-51.5-59.1-93.4 8.2-41.9 47.7-70.1 90-64.2 42.3 5.9 72.6 43.7 69.1 86.3v6.8z m56.9-35.7c-11.8-67.8-70.6-117.3-139.4-117.3-68.8 0-127.6 49.5-139.4 117.3H397.10117c-11.8-67.8-70.6-117.3-139.4-117.3-68.8 0-127.6 49.5-139.4 117.3H56.90117V585c6.5-72.5 57.8-133.2 128.2-151.7l7.6-2.7c11.4-3.4 23.1-5.5 34.9-6.4h568.9c11.5 0 22.9 1.1 34.1 3.4l7.6 2.7c70.4 18.5 121.7 79.2 128.2 151.7v133.1l-56.2 0.3z m0 0" p-id="7593"></path></svg>