<?xml version="1.0" standalone="no"?><!DOCTYPE svg PUBLIC "-//W3C//DTD SVG 1.1//EN" "http://www.w3.org/Graphics/SVG/1.1/DTD/svg11.dtd"><svg t="1600251614264" class="icon" viewBox="0 0 1024 1024" version="1.1" xmlns="http://www.w3.org/2000/svg" p-id="8368" xmlns:xlink="http://www.w3.org/1999/xlink" width="200" height="200"><defs><style type="text/css"></style></defs><path d="M637.001143 840.009143a89.965714 89.965714 0 1 1-59.977143-84.882286V153.965714c0-33.133714 26.843429-59.977143 59.977143-59.977143h69.997714a119.990857 119.990857 0 0 1 119.990857 119.954286v315.026286a125.001143 125.001143 0 0 1-189.988571 106.788571v204.214857zM287.012571 209.005714h180.004572a29.988571 29.988571 0 1 1 0 59.977143H287.012571a29.988571 29.988571 0 1 1 0-59.977143z m0 114.980572h180.004572a29.988571 29.988571 0 1 1 0 60.013714H287.012571a29.988571 29.988571 0 1 1 0-59.977143z m0 115.017143h180.004572a29.988571 29.988571 0 1 1 0 59.977142H287.012571a29.988571 29.988571 0 1 1 0-59.977142zM467.017143 93.988571a29.988571 29.988571 0 1 1 0 59.977143H256.987429a89.965714 89.965714 0 0 0-89.965715 90.038857v596.114286a29.988571 29.988571 0 1 0 59.977143 0v-196.132571a89.965714 89.965714 0 0 1 90.002286-89.965715h150.016a29.988571 29.988571 0 1 1 0 59.977143H317.001143a29.988571 29.988571 0 0 0-29.988572 29.988572v196.132571a89.965714 89.965714 0 1 1-180.004571 0v-596.114286A150.016 150.016 0 0 1 256.987429 93.988571h210.029714z m234.971428 500.004572a64.987429 64.987429 0 1 0 0-129.974857 64.987429 64.987429 0 0 0 0 129.974857z m90.002286 336.018286a119.990857 119.990857 0 1 1 0-240.018286 119.990857 119.990857 0 0 1 0 240.018286z m0-59.977143a59.977143 59.977143 0 1 0 0-120.027429 59.977143 59.977143 0 0 0 0 119.990857z m-154.989714-447.817143a124.416 124.416 0 0 1 64.987428-18.212572c23.808 0 46.08 6.656 65.024 18.212572V214.016a59.977143 59.977143 0 0 0-60.013714-60.013714h-69.997714v268.214857z m-90.002286 447.780571a29.988571 29.988571 0 1 0 0-59.977143 29.988571 29.988571 0 0 0 0 59.977143z" p-id="8369"></path></svg>