<?xml version="1.0" standalone="no"?><!DOCTYPE svg PUBLIC "-//W3C//DTD SVG 1.1//EN" "http://www.w3.org/Graphics/SVG/1.1/DTD/svg11.dtd"><svg t="1600251470672" class="icon" viewBox="0 0 1024 1024" version="1.1" xmlns="http://www.w3.org/2000/svg" p-id="6827" xmlns:xlink="http://www.w3.org/1999/xlink" width="200" height="200"><defs><style type="text/css"></style></defs><path d="M512 511.707334" p-id="6828"></path><path d="M512 511.707334" p-id="6829"></path><path d="M337.774957 246.263753l0 567.723116 111.64066 0L449.415616 632.55161l119.468952 0c40.105417-4.034896 67.900459-8.244778 102.693894-24.565489 48.235584-28.788673 67.284429-65.016783 69.902046-165.56378-2.629897-68.38653-1.215688-124.768655-88.331791-178.146353-24.058952-11.969613-53.725622-17.987676-88.914052-17.987676L337.774957 246.263753 337.774957 246.263753zM450.071555 534.300912 450.071555 338.779843l89.542362 0.188288c75.823919 0.246617 96.169293 43.938722 96.169293 103.325273 0 56.441477-19.342534 92.007507-101.119025 92.007507" p-id="6830"></path><path d="M512 959.678042c-60.467163 0-119.135354-11.846816-174.376493-35.211966-53.345975-22.562878-101.252055-54.860469-142.386918-95.995331-41.133839-41.134863-73.432453-89.040942-95.996354-142.387941-23.36515-55.240115-35.211966-113.908306-35.211966-174.376493 0-60.467163 11.846816-119.135354 35.211966-174.376493 22.563902-53.345975 54.861492-101.252055 95.996354-142.386918 41.134863-41.134863 89.040942-73.432453 142.386918-95.996354 55.241139-23.36515 113.909329-35.211966 174.376493-35.211966s119.136378 11.846816 174.376493 35.211966c53.345975 22.563902 101.252055 54.861492 142.386918 95.996354 41.134863 41.134863 73.432453 89.040942 95.996354 142.386918 23.36515 55.240115 35.211966 113.909329 35.211966 174.376493 0 60.467163-11.846816 119.135354-35.211966 174.376493-22.563902 53.346999-54.860469 101.252055-95.996354 142.387941-41.133839 41.133839-89.040942 73.432453-142.386918 95.995331C631.136378 947.830203 572.467163 959.678042 512 959.678042zM512 102.621239c-225.570455 0-409.086096 183.514617-409.086096 409.085072s183.514617 409.085072 409.086096 409.085072c225.570455 0 409.086096-183.514617 409.086096-409.085072S737.569432 102.621239 512 102.621239z" p-id="6831"></path></svg>