<?xml version="1.0" standalone="no"?><!DOCTYPE svg PUBLIC "-//W3C//DTD SVG 1.1//EN" "http://www.w3.org/Graphics/SVG/1.1/DTD/svg11.dtd"><svg t="1600251673180" class="icon" viewBox="0 0 1260 1024" version="1.1" xmlns="http://www.w3.org/2000/svg" p-id="9895" xmlns:xlink="http://www.w3.org/1999/xlink" width="246.09375" height="200"><defs><style type="text/css"></style></defs><path d="M1245.499077 272.384c-36.076308-26.663385-72.861538-53.326769-108.937846-79.320615-32.768-24.024615-65.496615-47.458462-98.264616-71.483077-38.754462-28.632615-78.217846-57.225846-116.972307-86.488616L873.865846 0h-16.699077c-11.382154 4.568615-22.724923 8.467692-34.776615 12.996923-26.742154 9.767385-54.784 20.164923-82.195692 29.932308-24.064 8.428308-49.467077 16.896-73.531077 24.694154-10.712615 3.899077-21.385846 7.128615-32.098462 11.027692-2.678154 1.299692-6.025846 1.969231-8.664615 3.268923-15.36 5.828923-32.768 12.327385-52.81477 0-2.678154-1.299692-13.390769 2.599385-17.408 3.899077a10147.052308 10147.052308 0 0 0-241.270153 81.92c-4.726154 1.929846-9.373538 5.828923-14.060308 10.397538-2.678154 3.229538-6.025846 5.828923-9.334154 8.428308a11.972923 11.972923 0 0 1-4.726154 3.268923c-5.986462 5.198769-12.681846 10.397538-20.676923 12.996923-56.162462 19.495385-113.664 38.990769-169.117538 57.186462l-70.183385 23.394461c-16.068923 6.498462-25.403077 11.697231-26.072615 17.565539-1.339077 5.868308 4.686769 14.966154 18.707692 27.293538l38.754462 36.430769-10.003693 3.899077c-4.726154 1.969231-8.664615 3.229538-12.051692 4.529231-7.995077 2.599385-14.690462 5.198769-21.385846 7.798154-5.356308 2.599385-12.012308 6.498462-13.390769 12.366769-1.299692 6.498462 3.387077 12.996923 7.364923 16.896 8.034462 9.097846 16.738462 17.565538 25.403077 26.663385l19.37723 20.795077-8.664615 3.229538c-2.678154 1.299692-5.356308 1.969231-8.664615 3.268923-6.695385 2.599385-14.060308 5.198769-20.755693 7.798154-6.025846 2.599385-12.681846 6.498462-14.020923 12.996923-2.008615 7.168 2.678154 13.666462 6.695385 17.565539 8.664615 9.058462 18.038154 17.526154 27.372307 26.624 4.726154 4.568615 9.373538 8.467692 14.060308 12.996923l7.325539 7.168-9.334154 3.938461c-4.017231 1.260308-8.034462 3.229538-11.382154 4.529231-7.325538 2.599385-13.390769 5.198769-20.046769 7.798154-6.025846 2.599385-13.390769 6.498462-14.690462 12.996923-1.339077 6.498462 4.017231 12.996923 7.995077 17.565538 8.704 8.428308 17.408 16.896 27.411692 25.324308 4.686769 3.938462 9.373538 8.467692 14.060308 12.996923l7.325539 7.168-20.04677 7.798154c-6.695385 2.599385-12.012308 4.568615-17.368615 6.498462-8.034462 3.268923-18.707692 8.467692-20.086154 14.966153-1.299692 5.828923 3.387077 12.996923 12.721231 22.055385l42.771692 39.699692c8.704 7.798154 17.408 15.596308 25.403077 23.394462L355.170462 1008.246154h16.029538c6.025846-2.599385 12.051692-5.198769 17.368615-7.798154 13.390769-5.868308 28.081231-12.366769 42.141539-17.565538a16899.347692 16899.347692 0 0 1 164.430769-61.755077l68.135385-25.324308 2.717538 5.198769c15.36 29.223385 15.36 29.223385 46.788923 16.896l52.775385-20.164923a19490.264615 19490.264615 0 0 1 155.766154-59.155692c18.038154-7.128615 27.411692-13.666462 27.411692-31.862154 0-11.027692 16.029538-22.055385 24.024615-25.324308 41.472-16.265846 83.574154-32.531692 123.667693-48.128 44.110769-16.896 90.269538-34.461538 135.08923-51.987692 13.351385-5.198769 24.694154-14.296615 25.363693-17.565539 0-7.128615-9.373538-17.565538-17.368616-25.363692l-3.347692-3.229538c-5.356308-5.868308-12.051692-10.397538-20.086154-16.265846a128.196923 128.196923 0 0 1-11.342769-8.428308l-9.334154-7.168 10.673231-3.899077c5.356308-1.969231 10.043077-3.899077 14.729846-5.828923 9.334154-3.268923 17.329231-6.537846 25.363692-10.436923 8.034462-3.899077 13.390769-8.428308 14.060308-14.296616 0.669538-5.198769-2.678154-11.027692-9.373538-16.896-9.334154-7.798154-19.377231-14.966154-30.050462-22.764307l-16.068923-11.697231-9.334154-7.128615 24.024616-9.767385c8.034462-3.229538 15.36-5.828923 22.055384-9.058462 10.712615-4.568615 16.738462-9.767385 18.077539-15.635692 0.669538-5.868308-4.017231-12.996923-13.39077-20.164923-8.664615-6.498462-17.329231-12.996923-26.702769-20.125538-4.726154-3.268923-10.043077-7.168-15.36-11.027693l-9.373538-7.168 10.67323-4.568615 14.060308-5.868308c9.334154-3.229538 16.699077-6.498462 24.733539-10.397538 8.664615-3.899077 14.020923-9.058462 15.36-14.296616 0.669538-5.198769-2.678154-11.697231-10.043077-17.526154-9.334154-7.798154-19.377231-14.966154-29.380923-22.134153-4.726154-3.899077-10.043077-7.128615-15.36-11.697231l-9.373539-7.128616 23.394462-9.767384c7.995077-3.229538 14.690462-5.828923 22.055384-9.058462 11.342769-4.568615 18.707692-10.436923 19.377231-16.30523 0.669538-1.969231-4.686769-9.058462-14.729846-16.226462zM56.359385 317.243077l-6.695385-7.168 71.561846-24.024615c14.690462-5.238154 30.050462-10.436923 44.780308-14.966154 43.441231-14.966154 88.891077-29.932308 133.671384-44.228923 10.712615-3.229538 28.081231-2.599385 36.785231 4.568615 88.221538 71.522462 176.443077 144.305231 262.695385 215.158154l41.432615 34.461538c1.969231 1.299692 3.347692 3.268923 4.686769 5.19877 0.669538 0.669538 1.339077 1.969231 1.969231 3.268923l4.726154 6.498461-7.364923 3.229539c-2.008615 1.299692-4.726154 1.969231-6.695385 3.268923a135.325538 135.325538 0 0 1-14.020923 6.498461l-88.221538 33.161846c-48.836923 18.195692-97.634462 36.391385-145.723077 54.587077-6.025846 1.969231-12.051692 3.938462-18.077539 3.938462-6.695385 0-14.020923-2.638769-22.055384-9.806769A49466.289231 49466.289231 0 0 0 147.968 405.661538c-26.781538-24.694154-53.484308-49.388308-80.226462-73.452307-2.678154-2.599385-4.686769-5.198769-7.364923-7.798154a12.760615 12.760615 0 0 0-4.01723-7.128615z m0 274.944l2.678153-3.229539c6.025846-7.168 12.051692-10.397538 18.707693-11.027692 9.373538-0.669538 17.408 5.828923 24.733538 12.327385 27.411692 25.363692 55.532308 50.688 82.904616 76.051692a14185.432615 14185.432615 0 0 1 150.409846 138.476308c17.329231 16.226462 31.389538 18.825846 54.114461 9.728 60.849231-24.024615 123.667692-47.458462 183.847385-69.553231 21.385846-7.798154 42.771692-15.596308 64.157538-24.024615 5.356308-1.969231 10.712615-3.938462 16.029539-5.19877 2.678154-0.669538 6.025846-1.969231 8.664615-2.599384l8.073846-2.638769 0.669539 8.467692c4.647385 44.859077 2.638769 47.458462-36.115692 61.755077-18.707692 7.168-38.084923 14.296615-56.832 21.464615-62.148923 23.394462-125.636923 47.458462-189.164308 70.183385a49.270154 49.270154 0 0 1-14.690462 2.599384c-8.664615 0-17.368615-1.969231-22.055384-6.498461-82.904615-74.752-166.439385-151.433846-248.004923-225.555692l-42.771693-38.99077a19.771077 19.771077 0 0 1-3.347692-4.568615c0-0.630154-0.669538-1.299692-0.669538-1.299692l-1.339077-5.868308zM637.243077 872.369231c-19.377231 7.168-38.084923 14.296615-57.501539 21.464615-62.818462 23.394462-126.976 48.088615-191.172923 70.892308a35.84 35.84 0 0 1-12.012307 1.929846c-8.664615 0-18.707692-2.599385-24.733539-7.798154-82.235077-74.121846-164.430769-149.543385-244.657231-222.995692l-40.093538-37.021539c-2.008615-1.969231-4.017231-4.568615-6.025846-6.537846-0.669538-0.630154-1.339077-1.969231-1.969231-2.599384l-2.717538-3.229539 8.704-18.865231 6.025846 2.599385c3.347692 1.299692 5.986462 1.969231 10.003692 3.268923 8.034462 2.599385 16.738462 5.198769 22.724923 11.027692 82.904615 74.752 157.105231 141.705846 231.975385 212.598154 18.038154 16.896 32.059077 19.495385 56.123077 10.397539 60.179692-24.064 121.698462-46.828308 181.16923-68.253539 22.055385-8.467692 44.780308-16.265846 66.835693-24.733538l16.029538-5.828923 15.36-5.19877 1.378462 7.798154c4.647385 43.559385 3.308308 46.788923-35.446154 61.085539z m0.669538-185.265231c-21.385846 7.798154-42.141538 15.596308-63.488 23.394462-58.840615 22.134154-120.32 44.898462-179.830153 67.623384-6.695385 2.599385-13.390769 4.568615-20.04677 4.568616-9.373538 0-18.707692-3.268923-28.750769-12.996924-74.200615-68.923077-149.740308-137.846154-223.232-204.8l-52.145231-47.458461c-2.678154-1.969231-5.356308-4.529231-8.664615-6.498462-2.048-1.299692-3.387077-2.599385-5.395692-3.899077l-6.695385-4.52923 8.034462-5.19877c23.394462-14.966154 26.781538-16.265846 45.449846 0.630154l53.484307 48.758154c60.179692 55.256615 122.998154 111.852308 183.808 169.038769 14.060308 12.996923 25.403077 15.596308 43.480616 8.428308 62.148923-24.024615 126.306462-48.088615 187.825231-70.852923 21.385846-7.798154 43.441231-16.265846 64.827076-24.024615 6.025846-1.969231 11.382154-3.938462 17.368616-6.537847l15.36-5.198769 1.378461 7.798154c8.664615 44.228923 6.695385 47.458462-32.768 61.755077z m1.339077-92.278154l-57.501538 21.425231c-63.488 24.024615-126.976 47.458462-190.503385 71.522461a46.237538 46.237538 0 0 1-18.038154 4.529231c-6.695385 0-14.020923-2.599385-22.055384-9.728a48330.121846 48330.121846 0 0 0-204.524308-187.864615c-26.072615-23.433846-51.475692-47.458462-77.587692-70.892308-2.638769-2.56-4.647385-5.159385-7.325539-7.758769-0.669538-1.339077-1.969231-1.969231-2.678154-3.268923l-4.686769-5.198769 4.726154-4.568616c20.007385-19.495385 36.076308-5.198769 45.410462 3.938462 26.781538 24.024615 52.814769 48.718769 79.556923 72.782769 50.136615 45.489231 101.612308 92.947692 151.748923 140.406154 17.329231 16.265846 31.389538 18.865231 54.784 9.767384 61.518769-24.024615 124.337231-47.458462 185.186461-70.222769 20.716308-7.798154 42.102154-15.596308 62.818462-23.394461 5.356308-1.969231 10.673231-3.899077 16.029538-5.19877a33.201231 33.201231 0 0 0 7.364923-2.599384l6.695385-2.599385 1.969231 7.128616c10.043077 41.629538 6.695385 47.458462-31.389539 61.794461z m249.304616 220.987077c-40.093538 14.966154-78.848 29.932308-120.32 46.828308-16.029538 6.498462-32.059077 12.327385-48.758154 18.825846l-9.373539 3.938461V763.785846c0-81.92 0-166.4 0.669539-249.619692 0-15.596308-4.686769-25.993846-17.368616-36.391385-84.243692-68.923077-169.117538-138.476308-252.022153-206.769231l-68.135385-55.886769c-4.056615-3.229538-8.073846-7.128615-13.390769-11.027692l-15.36-13.666462 9.334154-3.899077c2.678154-1.299692 5.356308-2.599385 7.364923-3.229538 4.647385-2.599385 9.334154-4.568615 14.020923-5.868308 19.377231-6.498462 38.754462-12.996923 57.501538-19.495384 37.415385-12.996923 75.500308-25.993846 112.955077-38.99077 15.36-5.868308 27.411692-3.938462 40.093539 7.128616 40.093538 33.161846 80.226462 65.654154 120.32 98.146461a33274.446769 33274.446769 0 0 1 186.486153 152.812308c10.712615 9.058462 18.747077 25.993846 18.747077 39.620923 0.630154 74.752 0.630154 150.173538 0.630154 223.625846v142.375385c0 13.627077-3.977846 25.993846-23.394461 33.122461z m310.153846-164.470154l6.025846 7.168-254.030769 97.516308-0.630154-8.467692c-4.017231-44.189538-3.347692-48.088615 34.067692-63.015385l33.437539-12.996923c34.776615-13.666462 70.183385-27.332923 104.96-40.96 39.424-14.966154 45.449846-12.996923 76.169846 20.755692z m0-92.947692l6.695384 7.168-251.31323 96.886154-2.008616-7.168c-10.043077-42.259692-6.695385-48.128 29.420308-61.755077 46.788923-18.235077 93.577846-36.430769 140.996923-54.626462 39.463385-15.596308 43.480615-14.296615 76.209231 19.495385z m0.669538-92.317539l5.356308 7.168-252.652308 97.516308-1.339077-8.467692c-6.025846-44.859077-4.686769-48.088615 34.067693-63.015385 13.390769-5.238154 26.781538-10.436923 40.132923-14.966154 31.389538-11.736615 64.157538-24.064 95.586461-38.360615 31.389538-14.966154 54.784-8.467692 78.848 20.125538z m0-92.947692l7.364923 7.168-251.31323 96.846769-2.008616-6.498461c-12.051692-38.990769-8.034462-48.088615 26.742154-61.755077 31.389538-12.366769 62.818462-24.024615 94.247385-36.391385l46.08-17.565538c40.132923-16.265846 42.811077-15.596308 78.887384 18.195692z m-1.339077-85.149538c-2.638769 1.299692-4.647385 2.599385-6.695384 3.899077a109.095385 109.095385 0 0 1-12.012308 6.498461l-26.742154 10.397539c-57.501538 21.464615-116.302769 44.189538-175.104 64.984615a49.270154 49.270154 0 0 1-14.729846 2.638769 35.249231 35.249231 0 0 1-20.716308-5.868307c-86.252308-68.253538-173.134769-137.806769-257.339077-205.430154l-40.763076-32.492308c-2.008615-1.969231-3.347692-3.229538-5.356308-5.828923a36.155077 36.155077 0 0 1-4.017231-5.198769l-6.025846-7.168 55.492923-18.865231c58.171077-19.495385 112.955077-38.360615 168.448-56.556308 7.364923-2.599385 18.038154-1.299692 24.064 3.268923a34907.766154 34907.766154 0 0 1 269.390769 195.66277l62.148923 45.48923-10.043077 4.568616z" p-id="9896"></path></svg>