<?xml version="1.0" standalone="no"?><!DOCTYPE svg PUBLIC "-//W3C//DTD SVG 1.1//EN" "http://www.w3.org/Graphics/SVG/1.1/DTD/svg11.dtd"><svg t="1600038972114" class="icon" viewBox="0 0 1024 1024" version="1.1" xmlns="http://www.w3.org/2000/svg" p-id="2157" xmlns:xlink="http://www.w3.org/1999/xlink" width="200" height="200"><defs><style type="text/css"></style></defs><path d="M641.276653 978.208398c40.081852-24.484289 74.268823-58.832232 102.566467-103.054931 28.280991-44.22825 50.206391-97.409834 65.7762-159.52255 15.57536-62.112716 23.36304-130.803051 23.36304-206.109862 0-78.104381-7.543448-148.226806-22.630343-210.339521-15.092446-62.112716-36.551585-115.055618-64.388517-158.817607-27.836932-43.761988-61.785222-77.399438-101.861523-100.93455C603.997922 15.916467 558.981468 4.137809 508.997107 4.137809c-50.95574 0-97.626313 13.893488-140.067227 41.641608-42.440914 27.770323-78.282004 67.541334-107.528823 119.290828C236.872363 210.24212 218.255201 261.769586 205.527367 319.652642 192.777331 377.530147 186.42174 440.836271 186.42174 509.521055c0 78.132134 7.548998 148.232357 22.635894 210.345073 15.086896 62.112716 36.523831 115.055618 64.360763 158.817606 27.836932 43.761988 61.563193 77.399438 101.178783 100.934551 39.61559 23.51291 84.415566 35.291568 134.399927 35.291568 48.08601 0 92.181043-12.239369 132.279546-36.701455zM608.188727 150.244234c26.737887 23.074402 48.530069 53.425817 65.426504 91.054244 16.874232 37.656181 29.069195 79.76405 36.568236 126.351362a891.21478 891.21478 0 0 1 11.273542 141.871215c0 47.997199-4.23521 95.289454-12.661225 141.876766-8.448217 46.587312-21.353674 88.717385-38.688617 126.345812-17.362697 37.656181-39.393561 68.007595-66.131448 91.054244-26.732336 23.052199-58.404825 34.586625-94.978612 34.586624-38.466588 0-71.049398-11.534426-97.781734-34.586624-26.732336-23.046648-48.552272-53.398063-65.426504-91.054244-16.890884-37.628427-29.091398-79.7585-36.590439-126.345812a891.331346 891.331346 0 0 1-11.251339-141.876766c0-48.924171 4.213007-96.92137 12.661225-143.991595 8.426015-47.048023 21.331471-89.155893 38.688617-126.345812 17.340494-37.167716 39.154879-67.052869 65.426504-89.644357 26.249422-22.585937 57.677679-33.881681 94.27367-33.881682 39.393561 0 72.459284 11.539976 99.19162 34.586625z" p-id="2158"></path></svg>