<?xml version="1.0" standalone="no"?><!DOCTYPE svg PUBLIC "-//W3C//DTD SVG 1.1//EN" "http://www.w3.org/Graphics/SVG/1.1/DTD/svg11.dtd"><svg t="1601540326458" class="icon" viewBox="0 0 1024 1024" version="1.1" xmlns="http://www.w3.org/2000/svg" p-id="12772" xmlns:xlink="http://www.w3.org/1999/xlink" width="200" height="200"><defs><style type="text/css"></style></defs><path d="M268.807 960.627c-12.849-6.973-17.737-23.006-10.754-35.836 6.913-12.826 22.976-17.708 35.825-10.735 32.89 17.708 68.226 31.58 105.307 40.923 35.894 9.063 73.674 13.874 112.57 13.874 126.677 0 241.412-51.241 324.372-134.134 83.032-82.824 134.358-197.368 134.358-323.835 0-126.467-51.326-240.94-134.358-323.765-82.96-82.893-197.695-134.135-324.372-134.135-126.676 0-241.342 51.242-324.303 134.136C104.42 269.944 53.094 384.418 53.094 510.885c0 55.633 9.916 108.898 28.003 158.047 18.925 51.313 46.58 98.16 81.146 138.666 9.497 11.086 8.1 27.75-3.004 37.16-11.104 9.482-27.723 8.086-37.15-2.998-38.827-45.524-69.763-97.743-90.713-154.632C11.124 632.122 0.021 572.794 0.021 510.885c0-141.038 57.262-268.758 149.93-361.203C242.55 57.167 370.483 0 511.756 0 653.097 0 781.03 57.167 873.629 149.681c92.597 92.445 149.931 220.165 149.931 361.203 0 141.105-57.333 268.827-149.931 361.272-92.598 92.445-220.532 149.683-361.874 149.683-43.156 0-85.196-5.44-125.42-15.547a506.993 506.993 0 0 1-117.528-45.665zM788.99 484.392c14.596 0 26.468 11.922 26.468 26.493 0 14.64-11.873 26.492-26.468 26.492H538.291V787.66c0 14.571-11.872 26.422-26.537 26.422-14.594 0-26.467-11.85-26.467-26.422V537.376H234.588c-14.665 0-26.536-11.852-26.536-26.492 0-14.571 11.871-26.493 26.536-26.493h250.7V234.177c0-14.641 11.873-26.492 26.466-26.492 14.665 0 26.537 11.851 26.537 26.492v250.214h250.7z" p-id="12773"></path></svg>