<?xml version="1.0" standalone="no"?><!DOCTYPE svg PUBLIC "-//W3C//DTD SVG 1.1//EN" "http://www.w3.org/Graphics/SVG/1.1/DTD/svg11.dtd"><svg t="1601993714783" class="icon" viewBox="0 0 1024 1024" version="1.1" xmlns="http://www.w3.org/2000/svg" p-id="5870" xmlns:xlink="http://www.w3.org/1999/xlink" width="200" height="200"><defs><style type="text/css"></style></defs><path d="M170.667 610.133c-17.067 0-29.867-12.8-29.867-29.866v-134.4C140.8 428.8 153.6 416 170.667 416s29.866 12.8 29.866 29.867v134.4c0 14.933-12.8 29.866-29.866 29.866zM864 716.8c-17.067 0-29.867-12.8-29.867-29.867v-486.4c0-25.6-21.333-46.933-46.933-46.933H247.467c-25.6 0-46.934 21.333-46.934 46.933V243.2c0 17.067-12.8 29.867-29.866 29.867S140.8 260.267 140.8 243.2v-42.667c0-59.733 49.067-108.8 108.8-108.8h537.6c59.733 0 108.8 49.067 108.8 108.8v486.4C893.867 704 878.933 716.8 864 716.8zM674.133 932.267H247.467c-59.734 0-108.8-49.067-108.8-108.8V780.8c0-17.067 12.8-29.867 29.866-29.867s29.867 12.8 29.867 29.867v42.667c0 25.6 21.333 46.933 46.933 46.933h424.534c17.066 0 29.866 12.8 29.866 29.867 4.267 19.2-8.533 32-25.6 32zM896 930.133c-8.533 0-14.933-2.133-21.333-8.533l-448-448c-12.8-12.8-12.8-32 0-42.667 12.8-12.8 32-12.8 42.666 0l448 448c12.8 12.8 12.8 32 0 42.667-4.266 6.4-12.8 8.533-21.333 8.533z" p-id="5871"></path><path d="M228.267 371.2H121.6c-17.067 0-29.867-12.8-29.867-29.867 0-17.066 12.8-29.866 29.867-29.866h108.8c17.067 0 29.867 12.8 29.867 29.866 0 17.067-14.934 29.867-32 29.867z m0 343.467H121.6c-17.067 0-29.867-12.8-29.867-29.867s12.8-29.867 29.867-29.867h108.8c17.067 0 29.867 12.8 29.867 29.867s-14.934 29.867-32 29.867z" p-id="5872"></path></svg>