<?xml version="1.0" standalone="no"?><!DOCTYPE svg PUBLIC "-//W3C//DTD SVG 1.1//EN" "http://www.w3.org/Graphics/SVG/1.1/DTD/svg11.dtd"><svg t="1600043157180" class="icon" viewBox="0 0 1024 1024" version="1.1" xmlns="http://www.w3.org/2000/svg" p-id="86762" xmlns:xlink="http://www.w3.org/1999/xlink" width="200" height="200"><defs><style type="text/css"></style></defs><path d="M864 32A96 96 0 0 1 959.552 118.784L960 128v704a96 96 0 0 1-86.784 95.552L864 928h-63.36v-64H864a32 32 0 0 0 31.488-26.24L896 832V128a32 32 0 0 0-26.24-31.488L864 96H224a32 32 0 0 0-31.488 26.24L192 128v64h-64V128A96 96 0 0 1 214.784 32.448L224 32h640z" p-id="86763"></path><path d="M736 192a64 64 0 0 1 64 64v704a64 64 0 0 1-64 64H96a64 64 0 0 1-64-64V256a64 64 0 0 1 64-64h640z m0 64H96v704h640V256z" p-id="86764"></path><path d="M224 384m32 0l256 0q32 0 32 32l0 0q0 32-32 32l-256 0q-32 0-32-32l0 0q0-32 32-32Z" p-id="86765"></path><path d="M224 768m32 0l256 0q32 0 32 32l0 0q0 32-32 32l-256 0q-32 0-32-32l0 0q0-32 32-32Z" p-id="86766"></path><path d="M224 576m32 0l320 0q32 0 32 32l0 0q0 32-32 32l-320 0q-32 0-32-32l0 0q0-32 32-32Z" p-id="86767"></path></svg>