<?xml version="1.0" standalone="no"?><!DOCTYPE svg PUBLIC "-//W3C//DTD SVG 1.1//EN" "http://www.w3.org/Graphics/SVG/1.1/DTD/svg11.dtd"><svg t="1601819896755" class="icon" viewBox="0 0 1024 1024" version="1.1" xmlns="http://www.w3.org/2000/svg" p-id="3928" xmlns:xlink="http://www.w3.org/1999/xlink" width="200" height="200"><defs><style type="text/css"></style></defs><path d="M0 512C0 229.226667 229.226667 0 512 0s512 229.226667 512 512-229.226667 512-512 512S0 794.773333 0 512z m511.829333 149.333333c-17.877333 0-32.981333 6.208-45.312 18.602667A61.802667 61.802667 0 0 0 448 725.12c0 20.266667 6.464 36.032 19.370667 47.296A66.666667 66.666667 0 0 0 512.682667 789.333333c17.002667 0 31.893333-5.717333 44.672-17.130666 12.757333-11.392 19.136-27.093333 19.136-47.082667 0-17.706667-6.314667-32.746667-18.922667-45.184A62.933333 62.933333 0 0 0 511.829333 661.333333zM512 234.666667a57.290667 57.290667 0 0 0-56.938667 63.616l33.258667 299.178666a23.829333 23.829333 0 0 0 47.36 0l33.258667-299.178666A57.28 57.28 0 0 0 512 234.666667z" fill="#FF5B0F" p-id="3929"></path></svg>