<?xml version="1.0" standalone="no"?><!DOCTYPE svg PUBLIC "-//W3C//DTD SVG 1.1//EN" "http://www.w3.org/Graphics/SVG/1.1/DTD/svg11.dtd"><svg t="1601994388088" class="icon" viewBox="0 0 1024 1024" version="1.1" xmlns="http://www.w3.org/2000/svg" p-id="28632" xmlns:xlink="http://www.w3.org/1999/xlink" width="200" height="200"><defs><style type="text/css"></style></defs><path d="M699.431385 117.917538l150.843077 150.843077a49.230769 49.230769 0 0 1 0 69.632L366.336 822.350769a49.230769 49.230769 0 0 1-25.895385 13.607385L122.683077 876.051692a33.476923 33.476923 0 0 1-38.675692-40.448l48.364307-209.644307a49.230769 49.230769 0 0 1 13.154462-23.729231L629.819077 117.917538a49.230769 49.230769 0 0 1 67.052308-2.402461l2.56 2.402461zM189.282462 642.008615l-38.971077 168.881231 176.403692-32.472615 474.840615-474.840616-136.920615-136.920615L189.243077 642.008615zM423.384615 828.711385v59.076923h492.307693v-59.076923z" p-id="28633"></path></svg>