<?xml version="1.0" standalone="no"?><!DOCTYPE svg PUBLIC "-//W3C//DTD SVG 1.1//EN" "http://www.w3.org/Graphics/SVG/1.1/DTD/svg11.dtd"><svg t="1600048623573" class="icon" viewBox="0 0 1024 1024" version="1.1" xmlns="http://www.w3.org/2000/svg" p-id="7584" xmlns:xlink="http://www.w3.org/1999/xlink" width="200" height="200"><defs><style type="text/css"></style></defs><path d="M1007.21 932.08c-29.263-150.797-119.3-279.101-249.856-353.4-13.523-6.753-21.384-12.943-45.02-22.492-81.614-33.22-163.21-42.786-238.6-42.786C248.638 531.427 61.809 702.5 16.79 932.079c-4.502 18.008 0 36.033 11.255 51.772 11.255 13.524 29.262 22.51 47.27 22.51h871.119c18.008 0 36.015-9.004 47.27-22.51 13.506-15.739 18.008-33.747 13.506-51.772z m-63.449 24.25c-3.113 0-6.718-1.055-10.499-2.55-1.16 0.176-2.374 0.352-3.798 0.352-2.233 0-4.695-0.493-7.28-1.302a23.336 23.336 0 0 1-8.107 1.302c-3.148 0-6.77-1.056-10.587-2.568a18.94 18.94 0 0 1-10.305 2.568c-1.055 0-2.18-0.211-3.306-0.387-3.764 2.427-9.426 2.532-15.335 1.442l0.493 0.193-1.653-0.14c-0.81-0.07-1.636-0.405-2.445-0.528-3.324 1.583-7.685 1.635-11.853 1.635h-1.107c-3.817 0-7.95-1.336-12.1-3.06-1.635 0.124-3.2 0.37-4.923 0.37-1.126 0-2.128-0.211-3.254-0.246a95.912 95.912 0 0 1-32.92 1.793c-2.128 0.159-4.168 0.651-6.33 0.651h-0.686c-5.944 0-11.712-0.774-17.34-1.952a97.811 97.811 0 0 1-28.488-1.337c-1.108 0.053-2.146 0.352-3.254 0.352h-2.937c-3.605 0-7.034-0.65-10.55-1.09-5.98 0.914-11.994 1.653-18.026 1.829-0.387 0.017-0.756-0.088-1.143-0.088-4.889 0.88-9.866 1.547-14.983 1.547h-2.92c-1.969 0-3.868-0.404-5.803-0.545-4.097 0.493-8.265 0.756-12.52 0.545-9.022-0.44-18.747-1.195-27.733-3.763-5.575 2.374-10.674 3.763-14.912 3.763-5.856 0-9.462-1.406-11.36-3.78-4.292 1.582-8.371 2.672-11.73 2.672-3.588 0-6.103-0.668-8.142-1.6-4.274 1.565-8.318 2.69-11.642 2.69-5.03 0-8.213-1.125-10.27-2.9a32.586 32.586 0 0 1-9.514 1.81 20.575 20.575 0 0 1-7.544-1.23 34.52 34.52 0 0 1-11.15 2.338c-5.697 0-9.32-1.301-11.254-3.552a96.176 96.176 0 0 1-20.153 2.093c-9.883 0-18.834-1.407-26.994-3.851-8.459 2.69-17.586 4.572-27.961 4.572a93.274 93.274 0 0 1-28.489-4.238 92.5 92.5 0 0 1-27.926 4.238 93.045 93.045 0 0 1-25.323-3.482c-4.906 1.934-9.46 3.13-13.242 3.13-3.5 0-6.12-0.545-8.072-1.495-3.024 0.88-5.908 1.495-8.423 1.495-3.623 0-6.137-0.668-8.177-1.635-1.337 0.228-2.726 0.527-3.922 0.527-2.356 0-4.15-0.352-5.838-0.756l-0.3 0.018c-3.253 0-6.383-0.194-9.46-0.458-5.258 2.146-10.077 3.394-14.086 3.394-4.38 0-7.21-0.95-9.303-2.32-4.027 0.527-8.195 0.86-12.574 0.86-1.758 0-3.341-0.245-5.03-0.369a32.674 32.674 0 0 1-9.372 1.83c-5.065 0-8.283-1.144-10.34-2.955-5.54 2.374-10.745 4.045-14.948 4.045-4.784 0-7.844-1.073-9.919-2.69-3.165 0.949-6.172 1.6-8.757 1.6-5.012 0-8.195-1.126-10.253-2.902a32.023 32.023 0 0 1-9.531 1.811c-4.467 0-7.333-0.985-9.444-2.41a88.596 88.596 0 0 1-41.22 0.67c-5.733 2.461-10.991 3.938-15.3 3.938-5.011 0-8.194-1.125-10.252-2.901a32.604 32.604 0 0 1-9.531 1.811 20.575 20.575 0 0 1-7.668-1.301 30.3 30.3 0 0 1-7.65 1.266c-3.2 0-5.592-0.493-7.561-1.249a29.772 29.772 0 0 1-7.826 1.249 18.64 18.64 0 0 1-8.09-1.583c-4.29 1.565-8.335 2.673-11.694 2.673-12.925 0-15.018-6.7-10.85-16.196a10.358 10.358 0 0 1-0.334-6.278c-1.266-3.834 0.457-9.25 4.185-15.476-3.605-4.677-0.369-13.189 6.736-22.949a18.113 18.113 0 0 1 1.793-8.634c0.159-4.924 3.57-11.466 8.899-18.641a12.539 12.539 0 0 1 0.422-6.19c0.07-0.352-0.07-0.51 0.088-0.932a56.274 56.274 0 0 1 3.64-8.248c0.65-1.125 1.67-2.11 2.603-3.148 0.756-1.565 1.74-3.2 2.796-4.87-6.788-0.493-1.214-8.565 6.4-15.09 2.973-9.794 7.105-19.167 13.19-27.31a85.642 85.642 0 0 1 9.953-17.954c4.203-9.198 9.743-17.762 17.006-24.884 1.829-3.394 3.798-6.735 5.996-9.9 4.485-8.301 10.323-15.793 17.498-22.123 0.809-0.88 1.512-1.812 2.356-2.62 0.669-0.774 1.126-1.706 1.83-2.445a78.819 78.819 0 0 1 21.63-24.901 76.34 76.34 0 0 1 9.302-9.32 75.847 75.847 0 0 1 18.905-15.775c4.185-4.783 8.758-9.267 14.156-12.96a76.146 76.146 0 0 1 26.8-18.711 76.251 76.251 0 0 1 29.861-19.221c4.379-2.902 9.074-5.452 14.21-7.492a77.113 77.113 0 0 1 20.17-10.094c5.064-2.972 10.48-5.575 16.495-7.439a80.946 80.946 0 0 1 33.465-12.485 84.305 84.305 0 0 1 22.37-6.155 89.862 89.862 0 0 1 29.35-5.75 91.04 91.04 0 0 1 28.893-5.189 98.233 98.233 0 0 1 28.98-1.336 99.71 99.71 0 0 1 14.438-1.126c3.764 0 7.386 0.229 10.904 0.598 0.228 0 0.404-0.053 0.633-0.053 4.185 0 8.16 0.317 12.028 0.774 1.495-0.07 2.937-0.228 4.467-0.228a95.617 95.617 0 0 1 23.565 2.936 94.786 94.786 0 0 1 19.168 2.603 92.254 92.254 0 0 1 28.946 4.713c9.97 0.703 18.676 3.236 26.73 6.507 7.984 1.301 15.018 3.85 21.612 6.928a79.346 79.346 0 0 1 33.15 12.574c9.25 2.357 18.112 6.26 26.307 11.519a94.61 94.61 0 0 1 18.342 8.617l-2.216-1.724 1.741 1.108c4.133 2.585 7.755 5.698 11.36 8.828 0.475 0.246 0.915 0.563 1.372 0.809 15.036 4.66 26.924 13.19 36.033 23.881 4.836 3.218 9.479 6.788 13.734 11.009l0.387 0.492c0.352 0.246 0.633 0.563 0.985 0.81 7.14 3.622 11.66 7.578 22.808 16.283 5.135 4.01 9.391 9.356 12.979 15.335 1.23 1.09 2.286 2.339 3.446 3.482 8.371 5.82 15.089 13.224 20.505 21.472a91.862 91.862 0 0 1 17.885 21.841c9.883 9.496 17.163 21.384 21.806 34.468 4.906 5.768 8.88 12.257 12.063 19.133 3.148 3.816 6.138 7.755 8.6 11.976 4.678 8.001 7.456 16.565 9.267 25.27l0.036 0.053c3.2 4.748 6.682 10.674 8.863 16.865 5.715 8.581 9.672 17.902 10.393 27.626 6.26 9.866 9.795 19.01 9.021 25.64 0.721 2.603 1.214 5.1 1.16 7.298 2.498 5.68 3.764 10.85 3.219 14.966 7.632 15.405 6.946 27.574-10.692 27.574z" p-id="7585"></path><path d="M972.32 939.395c-25.886-137.29-108.609-253.778-232.411-328.059-47.27-29.825-144.061-61.338-244.791-61.338h-16.882C268.897 565.19 93.886 725.572 52.243 939.395c-1.126 5.627-0.563 15.211 5.064 20.839 0.563 0.563 0.563 1.108 1.126 1.706 3.94 5.047 10.692 7.86 18.008 7.86h871.681c7.316 0 14.069-2.813 18.008-7.86 5.645-7.316 7.315-14.632 6.19-22.545z m-28.559 16.935c-3.113 0-6.718-1.055-10.499-2.55-1.16 0.176-2.374 0.352-3.798 0.352-2.233 0-4.695-0.493-7.28-1.302a23.336 23.336 0 0 1-8.107 1.302c-3.148 0-6.77-1.056-10.587-2.568a18.94 18.94 0 0 1-10.305 2.568c-1.055 0-2.18-0.211-3.306-0.387-3.764 2.427-9.426 2.532-15.335 1.442l0.493 0.193-1.653-0.14c-0.81-0.07-1.636-0.405-2.445-0.528-3.324 1.583-7.685 1.635-11.853 1.635h-1.107c-3.817 0-7.95-1.336-12.1-3.06-1.635 0.124-3.2 0.37-4.923 0.37-1.126 0-2.128-0.211-3.254-0.246a95.912 95.912 0 0 1-32.92 1.793c-2.128 0.159-4.168 0.651-6.33 0.651h-0.686c-5.944 0-11.712-0.774-17.34-1.952a97.811 97.811 0 0 1-28.488-1.337c-1.108 0.053-2.146 0.352-3.254 0.352h-2.937c-3.605 0-7.034-0.65-10.55-1.09-5.98 0.914-11.994 1.653-18.026 1.829-0.387 0.017-0.756-0.088-1.143-0.088-4.889 0.88-9.866 1.547-14.983 1.547h-2.92c-1.969 0-3.868-0.404-5.803-0.545-4.097 0.493-8.265 0.756-12.52 0.545-9.022-0.44-18.747-1.195-27.733-3.763-5.575 2.374-10.674 3.763-14.912 3.763-5.856 0-9.462-1.406-11.36-3.78-4.292 1.582-8.371 2.672-11.73 2.672-3.588 0-6.103-0.668-8.142-1.6-4.274 1.565-8.318 2.69-11.642 2.69-5.03 0-8.213-1.125-10.27-2.9a32.586 32.586 0 0 1-9.514 1.81 20.575 20.575 0 0 1-7.544-1.23 34.52 34.52 0 0 1-11.15 2.338c-5.697 0-9.32-1.301-11.254-3.552a96.176 96.176 0 0 1-20.153 2.093c-9.883 0-18.834-1.407-26.994-3.851-8.459 2.69-17.586 4.572-27.961 4.572a93.274 93.274 0 0 1-28.489-4.238 92.5 92.5 0 0 1-27.926 4.238 93.045 93.045 0 0 1-25.323-3.482c-4.906 1.934-9.46 3.13-13.242 3.13-3.5 0-6.12-0.545-8.072-1.495-3.024 0.88-5.908 1.495-8.423 1.495-3.623 0-6.137-0.668-8.177-1.635-1.337 0.228-2.726 0.527-3.922 0.527-2.356 0-4.15-0.352-5.838-0.756l-0.3 0.018c-3.253 0-6.383-0.194-9.46-0.458-5.258 2.146-10.077 3.394-14.086 3.394-4.38 0-7.21-0.95-9.303-2.32-4.027 0.527-8.195 0.86-12.574 0.86-1.758 0-3.341-0.245-5.03-0.369a32.674 32.674 0 0 1-9.372 1.83c-5.065 0-8.283-1.144-10.34-2.955-5.54 2.374-10.745 4.045-14.948 4.045-4.784 0-7.844-1.073-9.919-2.69-3.165 0.949-6.172 1.6-8.757 1.6-5.012 0-8.195-1.126-10.253-2.902a32.023 32.023 0 0 1-9.531 1.811c-4.467 0-7.333-0.985-9.444-2.41a88.596 88.596 0 0 1-41.22 0.67c-5.733 2.461-10.991 3.938-15.3 3.938-5.011 0-8.194-1.125-10.252-2.901a32.604 32.604 0 0 1-9.531 1.811 20.575 20.575 0 0 1-7.668-1.301 30.3 30.3 0 0 1-7.65 1.266c-3.2 0-5.592-0.493-7.561-1.249a29.772 29.772 0 0 1-7.826 1.249 18.64 18.64 0 0 1-8.09-1.583c-4.29 1.565-8.335 2.673-11.694 2.673-12.925 0-15.018-6.7-10.85-16.196a10.358 10.358 0 0 1-0.334-6.278c-1.266-3.834 0.457-9.25 4.185-15.476-3.605-4.677-0.369-13.189 6.736-22.949a18.113 18.113 0 0 1 1.793-8.634c0.159-4.924 3.57-11.466 8.899-18.641a12.539 12.539 0 0 1 0.422-6.19c0.07-0.352-0.07-0.51 0.088-0.932a56.274 56.274 0 0 1 3.64-8.248c0.65-1.125 1.67-2.11 2.603-3.148 0.756-1.565 1.74-3.2 2.796-4.87-6.788-0.493-1.214-8.565 6.4-15.09 2.973-9.794 7.105-19.167 13.19-27.31a85.642 85.642 0 0 1 9.953-17.954c4.203-9.198 9.743-17.762 17.006-24.884 1.829-3.394 3.798-6.735 5.996-9.9 4.485-8.301 10.323-15.793 17.498-22.123 0.809-0.88 1.512-1.812 2.356-2.62 0.669-0.774 1.126-1.706 1.83-2.445a78.819 78.819 0 0 1 21.63-24.901 76.34 76.34 0 0 1 9.302-9.32 75.847 75.847 0 0 1 18.905-15.775c4.185-4.783 8.758-9.267 14.156-12.96a76.146 76.146 0 0 1 26.8-18.711 76.251 76.251 0 0 1 29.861-19.221c4.379-2.902 9.074-5.452 14.21-7.492a77.113 77.113 0 0 1 20.17-10.094c5.064-2.972 10.48-5.575 16.495-7.439a80.946 80.946 0 0 1 33.465-12.485 84.305 84.305 0 0 1 22.37-6.155 89.862 89.862 0 0 1 29.35-5.75 91.04 91.04 0 0 1 28.893-5.189 98.233 98.233 0 0 1 28.98-1.336 99.71 99.71 0 0 1 14.438-1.126c3.764 0 7.386 0.229 10.904 0.598 0.228 0 0.404-0.053 0.633-0.053 4.185 0 8.16 0.317 12.028 0.774 1.495-0.07 2.937-0.228 4.467-0.228a95.617 95.617 0 0 1 23.565 2.936 94.786 94.786 0 0 1 19.168 2.603 92.254 92.254 0 0 1 28.946 4.713c9.97 0.703 18.676 3.236 26.73 6.507 7.984 1.301 15.018 3.85 21.612 6.928a79.346 79.346 0 0 1 33.15 12.574c9.25 2.357 18.112 6.26 26.307 11.519a94.61 94.61 0 0 1 18.342 8.617l-2.216-1.724 1.741 1.108c4.133 2.585 7.755 5.698 11.36 8.828 0.475 0.246 0.915 0.563 1.372 0.809 15.036 4.66 26.924 13.19 36.033 23.881 4.836 3.218 9.479 6.788 13.734 11.009l0.387 0.492c0.352 0.246 0.633 0.563 0.985 0.81 7.14 3.622 11.66 7.578 22.808 16.283 5.135 4.01 9.391 9.356 12.979 15.335 1.23 1.09 2.286 2.339 3.446 3.482 8.371 5.82 15.089 13.224 20.505 21.472a91.862 91.862 0 0 1 17.885 21.841c9.883 9.496 17.163 21.384 21.806 34.468 4.906 5.768 8.88 12.257 12.063 19.133 3.148 3.816 6.138 7.755 8.6 11.976 4.678 8.001 7.456 16.565 9.267 25.27l0.036 0.053c3.2 4.748 6.682 10.674 8.863 16.865 5.715 8.581 9.672 17.902 10.393 27.626 6.26 9.866 9.795 19.01 9.021 25.64 0.721 2.603 1.214 5.1 1.16 7.298 2.498 5.68 3.764 10.85 3.219 14.966 7.632 15.405 6.946 27.574-10.692 27.574z" p-id="7586"></path><path d="M512 15.959c-141.81 0-258.86 117.05-258.86 258.86S370.19 533.678 512 533.678s258.877-117.05 258.877-258.86S653.81 15.958 512 15.958z m205.804 275.6a100.906 100.906 0 0 1-4.379 27.698 95.964 95.964 0 0 1-7.949 28.348 89.862 89.862 0 0 1-8.792 20.716c-4.995 12.31-12.363 23.565-22.65 32.27a74.563 74.563 0 0 1-14.93 16.741 77.2 77.2 0 0 1-31.162 26.959 76.04 76.04 0 0 1-26.045 16.038 79.416 79.416 0 0 1-32.92 13.927c-5.715 1.882-12.046 2.99-18.658 3.711a94.012 94.012 0 0 1-26.59 3.728c-1.3 0-2.497-0.193-3.763-0.246-1.688 0.088-3.306 0.246-5.03 0.246a106.041 106.041 0 0 1-8.669-0.422c-1.987 0.176-3.904 0.422-5.979 0.422a93.204 93.204 0 0 1-28.682-4.29c-20.839-0.599-37.704-7.21-50.576-17.586a76.743 76.743 0 0 1-35.33-23.248 85.765 85.765 0 0 1-33.922-31.584 82.53 82.53 0 0 1-11.712-17.164 86.503 86.503 0 0 1-15.581-26.73 94.259 94.259 0 0 1-6.753-20.68 94.224 94.224 0 0 1-9.584-32.094 100.941 100.941 0 0 1-3.2-43.12 100.01 100.01 0 0 1 5.222-36.912c1.073-4.22 2.445-8.336 4.027-12.363a94.083 94.083 0 0 1 9.057-27.011 84.534 84.534 0 0 1 20.575-33.079 80.894 80.894 0 0 1 22.158-28.488c4.555-5.346 9.795-10.13 15.81-14.174a76.673 76.673 0 0 1 30.405-19.784c3.2-1.67 6.26-3.5 9.795-4.783 11.114-7.65 24.919-12.521 41.15-13.787a88.28 88.28 0 0 1 20.487-5.135 94.61 94.61 0 0 1 56.186 0.228h0.036a86.17 86.17 0 0 1 41.783 10.306c18.799 3.253 33.659 11.94 44.667 23.74a75.196 75.196 0 0 1 30.406 22.316 80.911 80.911 0 0 1 24.672 32.2c1.6 2.637 3.166 5.293 4.572 8.018 12.082 12.732 19.626 29.157 22.528 46.532 1.688 4.132 2.972 8.423 4.062 12.784 5.698 14.456 7.439 30.406 5.891 45.987a102.297 102.297 0 0 1-0.598 17.972c-0.035 0.598 0.035 1.196-0.035 1.794zM986.406 936.6c-27.029-144.061-112.548-262.236-238.601-337.643-47.85-29.825-145.75-63.59-252.67-63.59-5.627 0-11.817 0-17.444 0.563C261.58 551.703 81.505 716.005 38.737 936.6c-2.25 11.255 0 24.743 9.004 33.764 6.753 9.004 18.007 13.506 29.262 13.506h871.12c11.254 0 22.509-4.502 29.262-13.506 6.752-9.021 11.254-20.259 9.021-33.764z m-42.645 19.73c-2.145 0-4.484-0.421-6.964-1.16H886.59c-3.429 0.95-7.667 0.81-12.028 0.018l0.492 0.193-1.653-0.14c-0.105 0-0.21-0.053-0.316-0.07h-3.078c-3.2 1.16-7.122 1.16-10.903 1.16h-1.108c-1.97 0-4.115-0.633-6.225-1.16h-24.339a103.333 103.333 0 0 1-11.377 0.667c-3.887 0-7.597-0.263-11.202-0.65-2.146 0.158-4.203 0.65-6.384 0.65h-0.703c-2.216 0-4.309-0.492-6.49-0.668H261.722c-2.532 0.65-4.924 1.038-7.052 1.038-2.954 0-5.31-0.37-7.21-1.038H157.3c-2.532 0.65-4.924 1.038-7.052 1.038-2.954 0-5.31-0.37-7.21-1.038H86.974c-2.532 0.65-4.924 1.038-7.052 1.038-6.612 0-10.182-1.882-11.8-4.836-0.44-0.422-0.738-1.003-1.248-1.249-1.126-1.108-2.251-4.502-1.126-8.423 0.757-3.87 1.724-7.65 2.568-11.466a17.937 17.937 0 0 1 1.143-5.1c0.721-3.078 1.759-5.997 2.532-9.039-1.266-3.94 0.51-9.479 4.45-15.897 5.785-20.048 12.345-39.709 20.522-58.472a10.692 10.692 0 0 1 2.18-4.678 474.6 474.6 0 0 1 82.565-126.141c3.007-3.693 6.366-7.07 10.041-10.183a466.897 466.897 0 0 1 48.87-44.245c4.643-4.502 9.936-8.423 15.827-11.73 4.784-3.376 9.585-6.77 14.509-9.953a76.04 76.04 0 0 1 18.57-11.29 446.498 446.498 0 0 1 58.753-28.98 81.808 81.808 0 0 1 27.838-10.095c2.585-0.844 5.1-1.846 7.703-2.638a434.874 434.874 0 0 1 94.98-18.236c5.064 0.545 10.691 0 16.319 0 32.586 0 64.68 3.412 94.75 8.969 1.548 0.263 3.114 0.527 4.608 0.879 4.344 0.844 8.53 1.811 12.803 2.726a87.049 87.049 0 0 1 20.17 4.783c44.017 11.325 81.28 26.712 105.144 41.713h0.563c8.072 4.783 15.933 9.813 23.653 14.983a76.322 76.322 0 0 1 11.94 8.37 491.57 491.57 0 0 1 43.947 35.436l2.567 2.004c2.269 1.776 4.361 3.816 6.331 6.032a466.897 466.897 0 0 1 58.402 67.564c1.143 1.565 2.303 3.095 3.341 4.73a460.935 460.935 0 0 1 53.689 102.806c0.21 0.492 0.369 1.002 0.562 1.494 2.427 6.595 4.538 13.33 6.542 20.1 4.274 7.774 6.525 14.808 5.98 20.224 0.65 2.163 1.125 4.238 1.248 6.138l0.932 3.552c1.39 3.552 2.198 6.84 2.356 9.777 0.51 2.357 1.196 4.625 1.689 6.964 5.486 13.365 3.534 23.53-12.574 23.53z" p-id="7587"></path><path d="M512 52.537c-122.677 0-222.282 99.605-222.282 222.281S389.323 497.1 512 497.1c122.695 0 222.3-99.605 222.3-222.282S634.694 52.537 512 52.537zM717.804 291.56a100.906 100.906 0 0 1-4.379 27.697 95.964 95.964 0 0 1-7.949 28.348 89.862 89.862 0 0 1-8.792 20.716c-4.995 12.31-12.363 23.565-22.65 32.27a74.563 74.563 0 0 1-14.93 16.741 77.2 77.2 0 0 1-31.162 26.959 76.04 76.04 0 0 1-26.045 16.038 79.416 79.416 0 0 1-32.92 13.927c-5.715 1.882-12.046 2.99-18.658 3.711a94.012 94.012 0 0 1-26.59 3.728c-1.3 0-2.497-0.193-3.763-0.246-1.688 0.088-3.306 0.246-5.03 0.246a106.041 106.041 0 0 1-8.669-0.422c-1.987 0.176-3.904 0.422-5.979 0.422a93.204 93.204 0 0 1-28.682-4.29c-20.839-0.599-37.704-7.21-50.576-17.586a76.743 76.743 0 0 1-35.33-23.248 85.765 85.765 0 0 1-33.922-31.584 82.53 82.53 0 0 1-11.712-17.164 86.503 86.503 0 0 1-15.581-26.73 94.259 94.259 0 0 1-6.753-20.68 94.224 94.224 0 0 1-9.584-32.094 100.941 100.941 0 0 1-3.2-43.12 100.01 100.01 0 0 1 5.222-36.912c1.073-4.22 2.445-8.336 4.027-12.363a94.083 94.083 0 0 1 9.057-27.011 84.534 84.534 0 0 1 20.575-33.079 80.894 80.894 0 0 1 22.158-28.488c4.555-5.346 9.795-10.13 15.81-14.174a76.673 76.673 0 0 1 30.405-19.784c3.2-1.67 6.26-3.5 9.795-4.783 11.114-7.65 24.919-12.521 41.15-13.787a88.28 88.28 0 0 1 20.487-5.135 94.61 94.61 0 0 1 56.186 0.228h0.036a86.17 86.17 0 0 1 41.783 10.306c18.799 3.253 33.659 11.94 44.667 23.74a75.196 75.196 0 0 1 30.406 22.316 80.911 80.911 0 0 1 24.672 32.2c1.6 2.637 3.166 5.293 4.572 8.018 12.082 12.732 19.626 29.157 22.528 46.532 1.688 4.132 2.972 8.423 4.062 12.784 5.698 14.456 7.439 30.406 5.891 45.987a102.297 102.297 0 0 1-0.598 17.972c-0.035 0.598 0.035 1.196-0.035 1.794z" p-id="7588"></path><path d="M512 38.468c-130.555 0-236.35 105.795-236.35 236.35 0 130.556 105.795 236.35 236.35 236.35s236.333-105.794 236.333-236.35c0-130.555-105.778-236.35-236.333-236.35z m77.447 429.458a81.72 81.72 0 0 1-11.607 4.255 206.648 206.648 0 0 1-65.84 10.85c-17.216 0-33.852-2.338-49.855-6.313a82.723 82.723 0 0 1-32.586-10.85 209.62 209.62 0 0 1-67.511-47.164c-0.229-0.247-0.475-0.458-0.686-0.704a207.598 207.598 0 0 1-56.749-126.528 102.348 102.348 0 0 1-0.703-13.928c0-0.914-0.14-1.811-0.14-2.726 0-6.63 0.421-13.154 1.037-19.625 0.351-5.768 1.143-11.466 2.462-17.058 2.216-12.328 5.909-24.057 10.217-35.505a89.121 89.121 0 0 1 4.361-10.939c0.81-1.846 1.372-3.816 2.234-5.627a86.345 86.345 0 0 1 11.659-21.366 215.015 215.015 0 0 1 15.141-21.226l0.053-0.07 0.017-0.018c3.922-5.61 8.635-10.675 13.98-15.159 1.285-1.301 2.392-2.76 3.711-4.027 2.937-3.13 6.103-6.102 9.585-8.722 1.354-1.126 2.919-1.988 4.308-3.078a76.146 76.146 0 0 1 25.816-17.515c7.403-4.256 14.93-8.353 22.86-11.712 4.345-2.163 9.005-3.957 13.964-5.346a209.04 209.04 0 0 1 45.423-9.954A96.826 96.826 0 0 1 512 65.515c7.333 0 14.192 0.756 20.558 2.145 7.315 0.721 14.472 1.9 21.542 3.36 6.471 0.931 12.503 2.461 18.078 4.554 6.313 1.917 12.468 4.203 18.535 6.682a78.08 78.08 0 0 1 26.044 12.82c8.213 4.801 16.003 10.235 23.46 16.074a77.377 77.377 0 0 1 16.477 14.437c1.038 1.003 1.917 2.128 2.937 3.13 5.451 4.66 10.182 9.936 14.121 15.775a206.93 206.93 0 0 1 43.946 99.2c0.634 3.464 1.126 6.964 1.407 10.516 0.686 6.788 1.108 13.647 1.108 20.61 0 87.418-54.234 162.298-130.766 193.108z" p-id="7589"></path></svg>