<?xml version="1.0" standalone="no"?><!DOCTYPE svg PUBLIC "-//W3C//DTD SVG 1.1//EN" "http://www.w3.org/Graphics/SVG/1.1/DTD/svg11.dtd"><svg t="1601994070959" class="icon" viewBox="0 0 1024 1024" version="1.1" xmlns="http://www.w3.org/2000/svg" p-id="16142" xmlns:xlink="http://www.w3.org/1999/xlink" width="200" height="200"><defs><style type="text/css"></style></defs><path d="M835.181714 771.693714c14.171429 0 25.636571 11.776 25.636572 26.276572s-11.465143 26.276571-25.636572 26.276571H225.389714c-14.171429 0-25.636571-11.776-25.636571-26.276571V211.309714c0-14.500571 11.465143-26.276571 25.636571-26.276571 14.189714 0 25.654857 11.776 25.654857 26.276571v560.384h584.137143zM357.888 587.264a25.234286 25.234286 0 0 1-36.315429 0 26.733714 26.733714 0 0 1 0-37.12l122.642286-125.878857a25.216 25.216 0 0 1 35.821714-0.420572l94.354286 91.867429 179.565714-204.672a25.234286 25.234286 0 0 1 36.278858-1.938286c10.496 9.709714 11.337143 26.313143 1.883428 37.083429L594.889143 570.971429a25.234286 25.234286 0 0 1-36.260572 1.901714l-0.457142-0.438857-95.341715-92.873143-104.96 107.702857z" p-id="16143"></path></svg>