<?xml version="1.0" standalone="no"?><!DOCTYPE svg PUBLIC "-//W3C//DTD SVG 1.1//EN" "http://www.w3.org/Graphics/SVG/1.1/DTD/svg11.dtd"><svg t="1600046174437" class="icon" viewBox="0 0 1024 1024" version="1.1" xmlns="http://www.w3.org/2000/svg" p-id="2967" xmlns:xlink="http://www.w3.org/1999/xlink" width="200" height="200"><defs><style type="text/css"></style></defs><path d="M197.734 882.944h120.653c30.49 0 55.194-25.958 55.194-58.086V247.322c0-32.103-24.704-58.087-55.194-58.087H197.734c-30.515 0-55.193 25.984-55.193 58.112v577.536c0 31.949 24.832 58.087 55.193 58.087z m18.407-616.243h83.84v538.803h-83.84V266.701z m281.267 616.243h120.653c30.515 0 55.193-25.984 55.193-58.112V85.786c0-32.103-24.678-58.087-55.193-58.087H497.408c-30.515 0-55.194 25.984-55.194 58.112v739.072c0 31.949 24.832 58.087 55.194 58.087z m18.406-777.805h83.84v700.34H515.84V105.164z m281.293 777.805H917.76c30.515 0 55.194-25.984 55.194-58.112V459.699c0-32.128-24.679-58.112-55.194-58.112H797.107c-30.49 0-55.193 25.984-55.193 58.112v365.133c0 31.974 24.832 58.112 55.193 58.112z m18.407-403.917h83.84v326.451h-83.84V479.053z" p-id="2968" fill="#515151"></path><path d="M985.856 937.83H74.752V39.808c0-21.453-16.384-38.733-36.787-38.733-20.352 0-36.762 17.28-36.762 38.733v935.936c0 8.883 2.765 16.947 7.501 23.398 6.758 9.677 17.664 16.128 29.9 16.128H986.01c20.377 0 36.787-17.254 36.787-38.707-0.154-21.299-16.563-38.733-36.941-38.733z" p-id="2969" fill="#515151"></path></svg>