<?xml version="1.0" standalone="no"?><!DOCTYPE svg PUBLIC "-//W3C//DTD SVG 1.1//EN" "http://www.w3.org/Graphics/SVG/1.1/DTD/svg11.dtd"><svg t="1600042828923" class="icon" viewBox="0 0 1093 1024" version="1.1" xmlns="http://www.w3.org/2000/svg" p-id="78476" xmlns:xlink="http://www.w3.org/1999/xlink" width="213.4765625" height="200"><defs><style type="text/css"></style></defs><path d="M1064.07732 996.209664H25.596362" fill="#231815" p-id="78477"></path><path d="M1064.07732 1024H25.596362a25.596362 25.596362 0 0 1 0-51.192723h1038.480958a25.596362 25.596362 0 0 1 0 51.192723z" fill="#4A4A4A" p-id="78478"></path><path d="M25.596362 1024a25.596362 25.596362 0 0 1-25.596362-25.596362V27.935869a25.596362 25.596362 0 0 1 51.192723 0v968.273795a25.596362 25.596362 0 0 1-25.596361 27.790336zM339.334623 851.40739H214.278113a48.267425 48.267425 0 0 1-47.5361-46.804776V237.09471a47.5361 47.5361 0 0 1 47.5361-47.5361h125.05651a48.267425 48.267425 0 0 1 47.5361 47.5361v567.507904a48.267425 48.267425 0 0 1-47.5361 46.804776z m-3.656623-614.31268H214.278113v562.388632h117.743264z m3.656623 563.119957zM666.236728 851.40739H544.836841a48.267425 48.267425 0 0 1-51.192723-46.804776V49.875608a47.5361 47.5361 0 0 1 51.192723-49.730074h121.399887a47.5361 47.5361 0 0 1 47.5361 47.5361v756.92098a48.267425 48.267425 0 0 1-47.5361 46.804776z m-3.656623-804.457081L544.836841 53.532231v751.070383h117.743264z m3.656623 750.339059zM993.138832 851.40739h-125.056509a48.267425 48.267425 0 0 1-47.536101-48.267425V387.747582a48.267425 48.267425 0 0 1 47.536101-48.267425h125.056509a48.267425 48.267425 0 0 1 47.536101 48.267425v416.855032a48.267425 48.267425 0 0 1-47.536101 46.804776z m-3.656623-463.659808h-121.399886l3.656623 416.855032h117.743263z m3.656623 412.467085z" fill="#4A4A4A" p-id="78479"></path></svg>