<?xml version="1.0" standalone="no"?><!DOCTYPE svg PUBLIC "-//W3C//DTD SVG 1.1//EN" "http://www.w3.org/Graphics/SVG/1.1/DTD/svg11.dtd"><svg t="1600044399717" class="icon" viewBox="0 0 1024 1024" version="1.1" xmlns="http://www.w3.org/2000/svg" p-id="94629" xmlns:xlink="http://www.w3.org/1999/xlink" width="200" height="200"><defs><style type="text/css"></style></defs><path d="M784.938 409.938c-8.189 0-16.379-3.124-22.627-9.373L623.436 261.69c-12.497-12.497-12.497-32.758 0-45.255 12.496-12.497 32.758-12.497 45.254 0L807.564 355.31c12.497 12.497 12.497 32.758 0 45.255-6.248 6.248-14.437 9.373-22.626 9.373zM370.281 824.625c-8.189 0-16.379-3.124-22.627-9.373L208.779 676.377c-12.497-12.496-12.497-32.758 0-45.254 12.497-12.498 32.758-12.498 45.255 0l138.875 138.875c12.497 12.496 12.497 32.758 0 45.254-6.249 6.249-14.438 9.373-22.628 9.373z" fill="#777777" p-id="94630"></path><path d="M160.004 896.001a32.002 32.002 0 0 1-30.362-42.123l69.438-208.25a32.009 32.009 0 0 1 7.728-12.504l486.063-486.125 0.084-0.084c12.262-12.172 28.5-18.876 45.725-18.876 17.254 0 33.495 6.723 45.732 18.931l92.591 92.59c12.288 12.258 19.047 28.592 19.005 45.964-0.042 17.263-6.811 33.452-19.061 45.596L390.943 817.25a32 32 0 0 1-12.519 7.735L170.111 894.36a31.948 31.948 0 0 1-10.107 1.641z m97.402-222.965l-46.809 140.386 140.431-46.769 480.717-480.84 0.141-0.141c0.081-0.08 0.122-0.12 0.122-0.304 0.001-0.293-0.146-0.438-0.232-0.525l-92.591-92.59a0.641 0.641 0 0 0-0.505-0.213c-0.271 0-0.444 0.11-0.617 0.278L257.406 673.036z" fill="#777777" p-id="94631"></path><path d="M864 814.75H701.563c-17.673 0-32-14.327-32-32s14.327-32 32-32H864c17.673 0 32 14.327 32 32s-14.327 32-32 32z" fill="#777777" p-id="94632"></path><path d="M782.75 896c-17.673 0-32-14.327-32-32V701.563c0-17.673 14.327-32 32-32s32 14.327 32 32V864c0 17.673-14.327 32-32 32z" fill="#777777" p-id="94633"></path></svg>