<?xml version="1.0" standalone="no"?><!DOCTYPE svg PUBLIC "-//W3C//DTD SVG 1.1//EN" "http://www.w3.org/Graphics/SVG/1.1/DTD/svg11.dtd"><svg t="1600039858370" class="icon" viewBox="0 0 1024 1024" version="1.1" xmlns="http://www.w3.org/2000/svg" p-id="10515" xmlns:xlink="http://www.w3.org/1999/xlink" width="200" height="200"><defs><style type="text/css"></style></defs><path d="M1003.923342 103.139556L841.619342 5.632A38.798222 38.798222 0 0 0 821.594453 0a39.822222 39.822222 0 0 0-34.816 20.935111L394.131342 728.746667a42.951111 42.951111 0 0 0-5.347555 22.016l-5.233778 231.367111H20.030009a20.48 20.48 0 0 0-20.024889 20.935111 20.48 20.48 0 0 0 20.081778 20.878222H394.814009a20.081778 20.081778 0 0 0 18.488889-12.743111l0.568889-0.341333 196.209777-126.122667-0.341333-0.512a40.675556 40.675556 0 0 0 16.213333-16.099556l392.590223-707.925333a42.723556 42.723556 0 0 0-14.677334-57.116444zM424.339342 955.107556l3.527111-157.752889 124.984889 75.093333-128.568889 82.659556z m166.855111-107.861334L428.947342 749.795556l320.113778-577.194667 162.304 97.507555-320.170667 577.194667z m340.195556-613.376L769.142898 136.305778 821.480676 41.813333l162.304 97.507556-52.451556 94.549333z" fill="#666666" p-id="10516"></path></svg>