<?xml version="1.0" standalone="no"?><!DOCTYPE svg PUBLIC "-//W3C//DTD SVG 1.1//EN" "http://www.w3.org/Graphics/SVG/1.1/DTD/svg11.dtd"><svg t="1600931891354" class="icon" viewBox="0 0 1024 1024" version="1.1" xmlns="http://www.w3.org/2000/svg" p-id="10466" xmlns:xlink="http://www.w3.org/1999/xlink" width="200" height="200"><defs><style type="text/css"></style></defs><path d="M896 928H768c-35.344 0-64-28.656-64-64V416c0-35.344 28.656-64 64-64h128c35.344 0 64 28.656 64 64v448c0 35.344-28.656 64-64 64z m0-512H768v448h128V416zM576 928H448c-35.344 0-64-28.656-64-64V160c0-35.344 28.656-64 64-64h128c35.344 0 64 28.656 64 64v704c0 35.344-28.656 64-64 64z m0-768H448v704h128V160zM256 928H128c-35.344 0-64-28.656-64-64V544c0-35.344 28.656-64 64-64h128c35.344 0 64 28.656 64 64v320c0 35.344-28.656 64-64 64z m0-384H128v320h128V544z" p-id="10467"></path></svg>