<?xml version="1.0" standalone="no"?><!DOCTYPE svg PUBLIC "-//W3C//DTD SVG 1.1//EN" "http://www.w3.org/Graphics/SVG/1.1/DTD/svg11.dtd"><svg t="1600045630874" class="icon" viewBox="0 0 1024 1024" version="1.1" xmlns="http://www.w3.org/2000/svg" p-id="11348" xmlns:xlink="http://www.w3.org/1999/xlink" width="200" height="200"><defs><style type="text/css"></style></defs><path d="M928.6 564V237c0-110.3-223.2-171-433.1-171C285.6 66 62 126.7 62 237.1v529.3c0 110.1 223.2 169.5 433.1 169.5 30.3 0 59.2 0 88-3.6 132.3 62.8 290.4 6.6 353.2-125.7 36.8-77.3 34-167.7-7.7-242.6zM495.5 113c221.7 0 387.3 65.5 387.3 124.1 0 58.6-165.9 124-387.7 124s-387.6-65.5-387.6-124S273.4 113 495.5 113z m-388 202.7c75.8 60.6 235.1 91 387.7 91s311.8-30.3 387.7-91V504c-104-103-271.6-102.3-374.6 1.6-9.8 9.9-19 20.7-27.2 32.1-214.7-2.7-373.6-66.4-373.6-124.1v-97.9z m0 176.5c69.2 54.3 207.8 85.3 347.6 91-15.9 34.5-24.3 72.1-24.3 110.1v19.4c-188.1-11.5-323.4-70.4-323.4-122.9v-97.6z m388 398.3c-222 0-387.9-66.1-387.9-124.1v-97.9c66.4 52.2 197.5 82.8 331.9 91 13.1 50.4 40.8 95.7 79.5 130.4l-23.5 0.6z m201.1 22.1c-121.5 0-219.9-98.4-219.9-219.9s98.4-219.9 219.9-219.9 219.9 98.4 219.9 219.9c-0.2 121.4-98.6 219.7-219.9 219.9z m0 0" p-id="11349"></path><path d="M847.9 670H720.1V543.9c0-13.1-10.7-23.8-23.8-23.8-13.1 0-23.8 10.7-23.8 23.8V670H544.6c-12.6 0-22.8 10.2-22.8 22.8s10.2 22.8 22.8 22.8h127.8v126.1c0 13.1 10.7 23.8 23.8 23.8 13.1 0 23.8-10.7 23.8-23.8V715.5h127.9c12.6 0 22.8-10.2 22.8-22.8S860.5 670 847.9 670z" p-id="11350"></path></svg>