<?xml version="1.0" standalone="no"?><!DOCTYPE svg PUBLIC "-//W3C//DTD SVG 1.1//EN" "http://www.w3.org/Graphics/SVG/1.1/DTD/svg11.dtd"><svg t="1600303148321" class="icon" viewBox="0 0 1024 1024" version="1.1" xmlns="http://www.w3.org/2000/svg" p-id="4383" xmlns:xlink="http://www.w3.org/1999/xlink" width="200" height="200"><defs><style type="text/css"></style></defs><path d="M382.912 697.6l79.68-56.512 129.536-224.064 12.416-22.016 26.24-45.44a1.28 1.28 0 0 0-0.448-1.792L562.112 308.48a1.28 1.28 0 0 0-1.024-0.128 1.28 1.28 0 0 0-0.832 0.64l-26.24 45.376-0.768 1.984-141.12 244.16-9.216 97.152z m120.896-28.352a34.816 34.816 0 0 1-16.064 15.04l-110.08 78.08-4.288 1.216a35.008 35.008 0 0 1-42.816-24.832l-1.088-4.288 12.672-134.144a34.88 34.88 0 0 1 4.864-21.248l141.44-244.608a52.992 52.992 0 0 1 2.496-4.992l26.24-45.376a51.008 51.008 0 0 1 69.824-18.752l68.224 39.36c24.384 14.08 32.768 45.312 18.624 69.76l-13.952 24.192-156.096 270.592z" fill="#000000" fill-opacity=".45" p-id="4384"></path></svg>