<?xml version="1.0" standalone="no"?><!DOCTYPE svg PUBLIC "-//W3C//DTD SVG 1.1//EN" "http://www.w3.org/Graphics/SVG/1.1/DTD/svg11.dtd"><svg t="1600307501288" class="icon" viewBox="0 0 1024 1024" version="1.1" xmlns="http://www.w3.org/2000/svg" p-id="24985" xmlns:xlink="http://www.w3.org/1999/xlink" width="200" height="200"><defs><style type="text/css"></style></defs><path d="M319.872 782.848l15.36 15.36c3.584 3.584 6.656 6.656 11.776 11.264 1.536 1.024 1.536 1.536 4.608 4.608 1.024 1.024 2.048 2.048 2.048 2.56 9.216 9.216 20.48 17.408 32.256 23.04 11.776 6.144 24.576 10.24 37.888 12.288 14.848 2.56 29.696 3.584 45.056 4.096H757.12v62.464-62.464h27.136c6.144 0 10.752 0 22.016-0.512 14.848 0 29.696-1.536 44.544-4.096 13.312-2.048 26.112-6.656 37.888-12.288 11.776-6.144 22.528-13.824 31.744-23.04 9.216-9.728 17.408-20.48 23.04-31.744 6.144-12.288 10.24-25.088 12.8-37.888 2.56-14.848 3.584-29.696 4.096-45.056 0-8.192 0.512-15.36 0.512-22.016V357.376v-12.8-5.632c0-8.192 0-11.776-0.512-16.896 0-14.848-1.536-29.696-4.096-44.544-2.048-13.312-6.656-26.112-12.288-37.888-6.144-11.776-13.824-22.528-23.552-32.256-9.216-9.216-19.968-17.408-32.256-23.04-11.776-6.144-24.576-10.24-37.888-12.288-14.848-2.56-29.696-4.096-45.056-4.096-10.752-0.512-15.872-0.512-21.504-0.512H468.352c-14.848 0-29.696 1.536-44.544 4.096-13.312 2.048-26.112 6.656-37.888 12.288-11.776 6.144-22.528 13.824-32.768 24.064-3.584 3.584-4.608 5.12-5.632 6.144-4.608 4.096-8.192 8.192-12.8 12.288-6.656 6.656-10.752 10.24-14.848 14.848L213.888 347.136c-1.536 1.536-2.56 2.048-3.072 3.072l-2.56 2.56c-5.12 5.12-7.68 7.168-10.24 10.24L104.32 456.192l-2.048 2.048-2.048 2.048-4.608 4.608c-3.584 3.584-4.608 4.608-6.144 6.656-8.192 7.68-13.824 14.336-19.456 21.504l-2.56 2.56c-1.536 1.536-2.56 3.072-3.584 4.608-2.048 7.68-2.048 15.872 0 23.552 1.024 2.048 2.56 3.584 3.584 5.12 7.168 8.704 13.824 15.872 20.48 22.528l2.048 2.048 2.048 2.048 3.584 3.584 4.608 4.608c2.048 2.048 3.072 3.072 4.096 4.608l93.184 93.184 9.216 8.704 6.144 6.144 3.072 3.072 103.936 103.424z m177.152-427.008c-1.024-1.536-2.048-3.072-3.584-4.096-5.12-5.12-11.776-8.192-18.944-8.192-7.168 0-13.824 3.072-18.944 8.192-10.24 10.24-10.24 27.648 0 37.888l-0.512 0.512 121.856 121.856-117.248 117.248c-1.536 1.024-3.072 2.048-4.608 3.584-10.24 10.752-10.24 27.648 0 38.4 10.24 10.24 27.648 10.752 37.888 0l0.512 0.512 121.856-121.856 121.856 121.344 0.512-0.512c10.752 10.24 27.648 10.24 37.888 0 10.752-10.752 10.752-27.648 0-37.888-1.024-1.024-2.56-2.56-4.096-3.072l-118.272-117.76 121.856-121.856-0.512-0.512c10.24-10.752 10.24-27.648 0-37.888-10.752-10.752-27.648-10.752-38.4 0-1.024 1.024-2.048 2.56-3.072 3.584l-118.784 118.784-117.248-118.272z m-326.656 366.592l-7.68-7.168-9.216-9.216-93.184-93.696-4.608-4.608-4.096-4.096-4.096-4.096-3.584-3.584c-7.68-7.68-15.36-15.872-22.528-24.576-6.656-7.168-11.776-14.848-15.36-23.552l-1.024-3.072c-6.656-20.992-6.656-44.032 0-65.024l1.024-3.072c3.584-8.704 9.216-16.896 15.36-23.552 6.656-8.704 13.824-16.384 22.016-24.064 2.048-2.56 4.096-4.608 8.192-8.192l4.096-4.096 2.56-2.56 2.048-2.048 93.184-92.672 9.728-9.728 3.584-3.584c1.536-1.536 3.072-2.56 4.096-4.096l103.936-103.936 15.36-15.36c4.096-4.608 8.704-8.704 13.824-13.312 4.096-4.096 4.608-5.12 5.12-5.632 13.824-13.824 30.208-25.6 48.128-34.816 17.408-9.216 36.352-15.36 55.808-18.432 17.92-3.072 36.352-4.608 53.76-4.608h317.44c6.656 0 11.776 0 23.04 0.512 18.432 0 36.352 1.536 54.272 4.608 19.456 3.072 38.4 9.728 55.808 18.432 17.92 9.216 33.792 20.992 48.128 34.816 13.824 13.824 25.6 30.208 34.816 48.128 8.704 17.408 14.848 36.352 18.432 55.808 3.072 17.92 4.608 35.84 4.608 53.248 0 5.12 0 9.216 0.512 17.92V680.96c0 7.168 0 14.848-0.512 23.04 0 17.92-2.048 36.352-4.608 54.272-3.584 19.456-9.728 37.888-18.432 56.32-9.216 17.408-20.992 33.792-34.816 47.616-13.824 13.824-30.208 25.6-48.128 34.816-17.408 9.216-36.352 15.36-55.808 18.432-17.92 3.072-35.84 4.608-53.76 4.608-11.776 0.512-16.896 0.512-23.552 0.512h-27.136v-62.464 62.464H467.84c-17.92 0-36.352-2.048-54.272-4.608-19.456-3.072-38.4-9.728-56.32-18.432-17.92-9.216-33.792-20.992-47.104-34.304l-4.096-4.096c-0.512-1.024-2.048-2.048-2.048-2.048-5.632-5.632-9.728-9.216-13.312-12.8-6.656-6.656-11.264-10.752-15.36-15.36l-101.376-101.376-3.584-5.12z" fill="#3F434A" p-id="24986"></path></svg>